<svg viewBox="0 0 202 147" xmlns="http://www.w3.org/2000/svg" xmlns:xlink="http://www.w3.org/1999/xlink" width="202.000000" height="147.000000" fill="none" customFrame="#000000">
	<rect id="logo" width="202.000000" height="147.000000" x="0.000000" y="0.000000" />
	<rect id="Rectangle" width="147.000000" height="147.000000" x="0.000000" y="0.000000" fill="rgb(31,30,30)" />
	<path id="LENNI" d="M70.6993 73L70.6993 50.56C73.5703 50.56 82.4143 51.649 83.0743 64.453L83.0743 73L87.7603 73L87.7603 49.999L83.0743 49.999L83.0743 60.328C81.6553 54.19 77.1673 49.999 70.6993 49.999L66.0133 49.999L66.0133 73L70.6993 73ZM97.3893 73L97.3893 50.56C100.26 50.56 109.104 51.649 109.764 64.453L109.764 73L114.45 73L114.45 49.999L109.764 49.999L109.764 60.328C108.345 54.19 103.857 49.999 97.3893 49.999L92.7033 49.999L92.7033 73L97.3893 73ZM26.6335 72.439L39.9655 72.439L39.9655 73L21.9145 73L21.9145 49.999L26.6005 49.999L26.6005 50.032L26.6335 50.032L26.6335 72.439ZM43.9316 73L62.0486 73L62.0486 72.439L48.6176 72.439L48.6176 61.285L59.1116 61.285L59.1116 60.691L48.6176 60.691L48.6176 50.56L62.0486 50.56L62.0486 49.999L43.9316 49.999L43.9316 73ZM124.079 73L119.393 73L119.393 49.999L124.079 49.999L124.079 73Z" fill="rgb(255,255,255)" fill-rule="evenodd" />
	<rect id="Rectangle" width="121.000000" height="42.000000" x="81.000000" y="92.000000" fill="rgb(188.062,51.332,36.0453)" />
	<path id="ART" d="M132.644 124L132.644 103.09L136.904 103.09L136.904 110.05C137.564 106.15 138.914 102.64 143.594 102.64C148.034 102.64 151.844 104.29 151.844 109.51C151.844 113.68 149.564 115.54 146.564 116.32L151.724 123.97L146.864 123.97L141.974 116.77L136.904 116.77L136.904 124L132.644 124ZM108.922 124L109.462 124L112.402 115.45L120.952 115.45L124.282 124L128.752 124L120.652 103.09L116.122 103.09L108.922 124ZM162.084 103.6L162.114 124L166.374 124L166.374 103.6L174.984 103.6L174.984 103.09L153.474 103.09L153.474 103.6L162.084 103.6ZM142.844 103.18C140.984 103.33 138.884 104.53 138.074 107.47C136.784 112.12 136.904 116.26 136.904 116.26L141.254 116.26C144.134 116.26 147.494 115.84 147.494 109.51C147.494 105.61 147.314 102.76 142.844 103.18ZM116.422 103.75L120.772 114.94L112.582 114.94L116.422 103.75Z" fill="rgb(255,255,255)" fill-rule="evenodd" />
</svg>
